<svg xmlns="http://www.w3.org/2000/svg">
    <line x1="0" y1="0" x2="900" y2="0" style="stroke:rgb(0,0,0);stroke-width:4" />
    <line x1="0" y1="100" x2="900" y2="100" style="stroke:rgb(0,0,0);stroke-width:1" />
    <line x1="0" y1="200" x2="900" y2="200" style="stroke:rgb(0,0,0);stroke-width:1" />
    <line x1="0" y1="300" x2="900" y2="300" style="stroke:rgb(0,0,0);stroke-width:4" />
    <line x1="0" y1="400" x2="900" y2="400" style="stroke:rgb(0,0,0);stroke-width:1" />
    <line x1="0" y1="500" x2="900" y2="500" style="stroke:rgb(0,0,0);stroke-width:1" />
    <line x1="0" y1="600" x2="900" y2="600" style="stroke:rgb(0,0,0);stroke-width:4" />
    <line x1="0" y1="700" x2="900" y2="700" style="stroke:rgb(0,0,0);stroke-width:1" />
    <line x1="0" y1="800" x2="900" y2="800" style="stroke:rgb(0,0,0);stroke-width:1" />
    <line x1="0" y1="900" x2="900" y2="900" style="stroke:rgb(0,0,0);stroke-width:4" />

    <line x1="0" y1="0" x2="0" y2="900" style="stroke:rgb(0,0,0);stroke-width:4" />
    <line x1="100" y1="0" x2="100" y2="900" style="stroke:rgb(0,0,0);stroke-width:1" />
    <line x1="200" y1="0" x2="200" y2="900" style="stroke:rgb(0,0,0);stroke-width:1" />
    <line x1="300" y1="0" x2="300" y2="900" style="stroke:rgb(0,0,0);stroke-width:4" />
    <line x1="400" y1="0" x2="400" y2="900" style="stroke:rgb(0,0,0);stroke-width:1" />
    <line x1="500" y1="0" x2="500" y2="900" style="stroke:rgb(0,0,0);stroke-width:1" />
    <line x1="600" y1="0" x2="600" y2="900" style="stroke:rgb(0,0,0);stroke-width:4" />
    <line x1="700" y1="0" x2="700" y2="900" style="stroke:rgb(0,0,0);stroke-width:1" />
    <line x1="800" y1="0" x2="800" y2="900" style="stroke:rgb(0,0,0);stroke-width:1" />
    <line x1="900" y1="0" x2="900" y2="900" style="stroke:rgb(0,0,0);stroke-width:4" />

    <text text-anchor="middle"  x="50" y="80" fill="black" style="font-size: 90">1</text>
    <text text-anchor="middle"  x="150" y="80" fill="black" style="font-size: 90">9</text>
    <text text-anchor="middle"  x="150" y="180" fill="black" style="font-size: 90">6</text>
</svg>